<mxfile host="app.diagrams.net" modified="2024-03-22T18:26:20.704Z" agent="Mozilla/5.0 (Windows NT 10.0; Win64; x64) AppleWebKit/537.36 (KHTML, like Gecko) Chrome/121.0.0.0 Safari/537.36" etag="6X9wpgUY7Q4J1xqBr9Wc" version="24.0.5" type="device">
  <diagram name="Stránka-1" id="WwW3SH3pPWQlp4jVcBad">
    <mxGraphModel dx="2550" dy="1353" grid="0" gridSize="10" guides="1" tooltips="1" connect="1" arrows="1" fold="1" page="0" pageScale="1" pageWidth="827" pageHeight="1169" math="0" shadow="0">
      <root>
        <mxCell id="0" />
        <mxCell id="1" parent="0" />
        <mxCell id="V-MFH_fSx5cqEBQ9GNb0-5" value="" style="edgeStyle=none;curved=1;rounded=0;orthogonalLoop=1;jettySize=auto;html=1;fontSize=12;startSize=8;endSize=8;" parent="1" source="V-MFH_fSx5cqEBQ9GNb0-1" target="V-MFH_fSx5cqEBQ9GNb0-2" edge="1">
          <mxGeometry relative="1" as="geometry" />
        </mxCell>
        <mxCell id="V-MFH_fSx5cqEBQ9GNb0-1" value="&lt;font style=&quot;vertical-align: inherit;&quot;&gt;&lt;font style=&quot;vertical-align: inherit;&quot;&gt;START&lt;/font&gt;&lt;/font&gt;" style="ellipse;whiteSpace=wrap;html=1;" parent="1" vertex="1">
          <mxGeometry x="239" y="-87" width="78" height="54" as="geometry" />
        </mxCell>
        <mxCell id="V-MFH_fSx5cqEBQ9GNb0-10" value="" style="edgeStyle=none;curved=1;rounded=0;orthogonalLoop=1;jettySize=auto;html=1;fontSize=12;startSize=8;endSize=8;entryX=0.5;entryY=0;entryDx=0;entryDy=0;" parent="1" source="V-MFH_fSx5cqEBQ9GNb0-2" target="V-MFH_fSx5cqEBQ9GNb0-6" edge="1">
          <mxGeometry relative="1" as="geometry">
            <Array as="points">
              <mxPoint x="403" y="53" />
            </Array>
          </mxGeometry>
        </mxCell>
        <mxCell id="V-MFH_fSx5cqEBQ9GNb0-12" value="" style="edgeStyle=none;curved=1;rounded=0;orthogonalLoop=1;jettySize=auto;html=1;fontSize=12;startSize=8;endSize=8;" parent="1" source="V-MFH_fSx5cqEBQ9GNb0-2" target="V-MFH_fSx5cqEBQ9GNb0-11" edge="1">
          <mxGeometry relative="1" as="geometry" />
        </mxCell>
        <mxCell id="V-MFH_fSx5cqEBQ9GNb0-2" value="&lt;font style=&quot;vertical-align: inherit;&quot;&gt;&lt;font style=&quot;vertical-align: inherit;&quot;&gt;je to moučník&lt;/font&gt;&lt;/font&gt;" style="rhombus;whiteSpace=wrap;html=1;" parent="1" vertex="1">
          <mxGeometry x="221" y="16" width="114" height="85" as="geometry" />
        </mxCell>
        <mxCell id="V-MFH_fSx5cqEBQ9GNb0-14" value="" style="edgeStyle=none;curved=1;rounded=0;orthogonalLoop=1;jettySize=auto;html=1;fontSize=12;startSize=8;endSize=8;entryX=0.5;entryY=0;entryDx=0;entryDy=0;" parent="1" target="V-MFH_fSx5cqEBQ9GNb0-13" edge="1">
          <mxGeometry relative="1" as="geometry">
            <Array as="points">
              <mxPoint x="604" y="117" />
            </Array>
            <mxPoint x="498.00248001853333" y="112.99734159620047" as="sourcePoint" />
            <mxPoint x="625.7071727748692" y="161.91282722513083" as="targetPoint" />
          </mxGeometry>
        </mxCell>
        <mxCell id="gNYUzNZE0exnkvLqRCgA-25" value="" style="edgeStyle=none;curved=1;rounded=0;orthogonalLoop=1;jettySize=auto;html=1;fontSize=12;startSize=8;endSize=8;entryX=0.5;entryY=0;entryDx=0;entryDy=0;" edge="1" parent="1" source="V-MFH_fSx5cqEBQ9GNb0-6" target="gNYUzNZE0exnkvLqRCgA-26">
          <mxGeometry relative="1" as="geometry">
            <Array as="points">
              <mxPoint x="272" y="122" />
            </Array>
          </mxGeometry>
        </mxCell>
        <mxCell id="V-MFH_fSx5cqEBQ9GNb0-6" value="&lt;font style=&quot;vertical-align: inherit;&quot;&gt;&lt;font style=&quot;vertical-align: inherit;&quot;&gt;je kulatý&lt;/font&gt;&lt;/font&gt;" style="rhombus;whiteSpace=wrap;html=1;" parent="1" vertex="1">
          <mxGeometry x="411" y="82.5" width="87" height="61" as="geometry" />
        </mxCell>
        <mxCell id="V-MFH_fSx5cqEBQ9GNb0-11" value="&lt;font style=&quot;vertical-align: inherit;&quot;&gt;&lt;font style=&quot;vertical-align: inherit;&quot;&gt;není to moučník :D&lt;/font&gt;&lt;/font&gt;" style="rounded=1;whiteSpace=wrap;html=1;" parent="1" vertex="1">
          <mxGeometry x="42" y="34.5" width="110" height="48" as="geometry" />
        </mxCell>
        <mxCell id="V-MFH_fSx5cqEBQ9GNb0-13" value="&lt;font style=&quot;vertical-align: inherit;&quot;&gt;&lt;font style=&quot;vertical-align: inherit;&quot;&gt;má náplň&lt;/font&gt;&lt;/font&gt;" style="rhombus;whiteSpace=wrap;html=1;" parent="1" vertex="1">
          <mxGeometry x="694" y="172.5" width="80" height="80" as="geometry" />
        </mxCell>
        <mxCell id="V-MFH_fSx5cqEBQ9GNb0-15" value="&lt;font style=&quot;vertical-align: inherit;&quot;&gt;&lt;font style=&quot;vertical-align: inherit;&quot;&gt;je to koláč&lt;/font&gt;&lt;/font&gt;" style="rounded=1;whiteSpace=wrap;html=1;" parent="1" vertex="1">
          <mxGeometry x="760" y="342" width="75" height="35.5" as="geometry" />
        </mxCell>
        <mxCell id="gNYUzNZE0exnkvLqRCgA-3" value="" style="endArrow=classic;html=1;rounded=0;fontSize=12;startSize=8;endSize=8;curved=1;exitX=0;exitY=0.5;exitDx=0;exitDy=0;entryX=0.5;entryY=0;entryDx=0;entryDy=0;" edge="1" parent="1" source="V-MFH_fSx5cqEBQ9GNb0-13" target="gNYUzNZE0exnkvLqRCgA-63">
          <mxGeometry width="50" height="50" relative="1" as="geometry">
            <mxPoint x="457" y="186" as="sourcePoint" />
            <mxPoint x="437" y="233" as="targetPoint" />
            <Array as="points">
              <mxPoint x="603" y="198" />
            </Array>
          </mxGeometry>
        </mxCell>
        <mxCell id="gNYUzNZE0exnkvLqRCgA-14" value="slepen ze dvou částí" style="rhombus;whiteSpace=wrap;html=1;" vertex="1" parent="1">
          <mxGeometry x="815" y="246" width="80" height="80" as="geometry" />
        </mxCell>
        <mxCell id="gNYUzNZE0exnkvLqRCgA-15" value="" style="endArrow=classic;html=1;rounded=0;fontSize=12;startSize=8;endSize=8;curved=1;entryX=0.5;entryY=0;entryDx=0;entryDy=0;exitX=1;exitY=0.5;exitDx=0;exitDy=0;" edge="1" parent="1" source="V-MFH_fSx5cqEBQ9GNb0-13" target="gNYUzNZE0exnkvLqRCgA-14">
          <mxGeometry width="50" height="50" relative="1" as="geometry">
            <mxPoint x="672" y="300.5" as="sourcePoint" />
            <mxPoint x="722" y="250.5" as="targetPoint" />
            <Array as="points">
              <mxPoint x="823" y="209.5" />
            </Array>
          </mxGeometry>
        </mxCell>
        <mxCell id="gNYUzNZE0exnkvLqRCgA-16" value="" style="endArrow=classic;html=1;rounded=0;fontSize=12;startSize=8;endSize=8;curved=1;exitX=0;exitY=0.5;exitDx=0;exitDy=0;entryX=0.5;entryY=0;entryDx=0;entryDy=0;" edge="1" parent="1" source="gNYUzNZE0exnkvLqRCgA-14" target="V-MFH_fSx5cqEBQ9GNb0-15">
          <mxGeometry width="50" height="50" relative="1" as="geometry">
            <mxPoint x="702" y="312.5" as="sourcePoint" />
            <mxPoint x="752" y="262.5" as="targetPoint" />
            <Array as="points">
              <mxPoint x="793" y="296.5" />
            </Array>
          </mxGeometry>
        </mxCell>
        <mxCell id="gNYUzNZE0exnkvLqRCgA-17" value="je to dort" style="rounded=1;whiteSpace=wrap;html=1;" vertex="1" parent="1">
          <mxGeometry x="885" y="342.5" width="74" height="35" as="geometry" />
        </mxCell>
        <mxCell id="gNYUzNZE0exnkvLqRCgA-18" value="" style="endArrow=classic;html=1;rounded=0;fontSize=12;startSize=8;endSize=8;curved=1;exitX=1;exitY=0.5;exitDx=0;exitDy=0;entryX=0.5;entryY=0;entryDx=0;entryDy=0;" edge="1" parent="1" source="gNYUzNZE0exnkvLqRCgA-14" target="gNYUzNZE0exnkvLqRCgA-17">
          <mxGeometry width="50" height="50" relative="1" as="geometry">
            <mxPoint x="702" y="312.5" as="sourcePoint" />
            <mxPoint x="924" y="347.5" as="targetPoint" />
            <Array as="points">
              <mxPoint x="927" y="293.5" />
            </Array>
          </mxGeometry>
        </mxCell>
        <mxCell id="gNYUzNZE0exnkvLqRCgA-19" value="je to bábovka" style="rounded=1;whiteSpace=wrap;html=1;" vertex="1" parent="1">
          <mxGeometry x="643" y="340" width="80" height="34" as="geometry" />
        </mxCell>
        <mxCell id="gNYUzNZE0exnkvLqRCgA-22" style="edgeStyle=none;curved=1;rounded=0;orthogonalLoop=1;jettySize=auto;html=1;exitX=0.5;exitY=1;exitDx=0;exitDy=0;fontSize=12;startSize=8;endSize=8;" edge="1" parent="1" source="gNYUzNZE0exnkvLqRCgA-19" target="gNYUzNZE0exnkvLqRCgA-19">
          <mxGeometry relative="1" as="geometry" />
        </mxCell>
        <mxCell id="gNYUzNZE0exnkvLqRCgA-28" value="" style="edgeStyle=none;curved=1;rounded=0;orthogonalLoop=1;jettySize=auto;html=1;fontSize=12;startSize=8;endSize=8;" edge="1" parent="1" source="gNYUzNZE0exnkvLqRCgA-26" target="gNYUzNZE0exnkvLqRCgA-27">
          <mxGeometry relative="1" as="geometry">
            <Array as="points">
              <mxPoint x="236" y="223" />
            </Array>
          </mxGeometry>
        </mxCell>
        <mxCell id="gNYUzNZE0exnkvLqRCgA-50" style="edgeStyle=none;curved=1;rounded=0;orthogonalLoop=1;jettySize=auto;html=1;exitX=0;exitY=0.5;exitDx=0;exitDy=0;entryX=0.5;entryY=0;entryDx=0;entryDy=0;fontSize=12;startSize=8;endSize=8;" edge="1" parent="1" source="gNYUzNZE0exnkvLqRCgA-26" target="gNYUzNZE0exnkvLqRCgA-48">
          <mxGeometry relative="1" as="geometry">
            <Array as="points">
              <mxPoint x="29" y="215" />
            </Array>
          </mxGeometry>
        </mxCell>
        <mxCell id="gNYUzNZE0exnkvLqRCgA-26" value="má náplň" style="rhombus;whiteSpace=wrap;html=1;" vertex="1" parent="1">
          <mxGeometry x="105" y="185" width="80" height="80" as="geometry" />
        </mxCell>
        <mxCell id="gNYUzNZE0exnkvLqRCgA-39" style="edgeStyle=none;curved=1;rounded=0;orthogonalLoop=1;jettySize=auto;html=1;exitX=0;exitY=0.5;exitDx=0;exitDy=0;entryX=0.5;entryY=0;entryDx=0;entryDy=0;fontSize=12;startSize=8;endSize=8;" edge="1" parent="1" source="gNYUzNZE0exnkvLqRCgA-27" target="gNYUzNZE0exnkvLqRCgA-38">
          <mxGeometry relative="1" as="geometry">
            <Array as="points">
              <mxPoint x="149" y="332" />
            </Array>
          </mxGeometry>
        </mxCell>
        <mxCell id="gNYUzNZE0exnkvLqRCgA-27" value="svinutý plát těsta" style="rhombus;whiteSpace=wrap;html=1;" vertex="1" parent="1">
          <mxGeometry x="202" y="294" width="80" height="80" as="geometry" />
        </mxCell>
        <mxCell id="gNYUzNZE0exnkvLqRCgA-30" value="je to závin" style="rounded=1;whiteSpace=wrap;html=1;" vertex="1" parent="1">
          <mxGeometry x="290" y="377" width="82" height="34" as="geometry" />
        </mxCell>
        <mxCell id="gNYUzNZE0exnkvLqRCgA-31" value="je to buchta" style="rounded=1;whiteSpace=wrap;html=1;" vertex="1" parent="1">
          <mxGeometry x="33" y="468" width="87" height="35" as="geometry" />
        </mxCell>
        <mxCell id="gNYUzNZE0exnkvLqRCgA-32" value="" style="endArrow=classic;html=1;rounded=0;fontSize=12;startSize=8;endSize=8;curved=1;exitX=1;exitY=0.5;exitDx=0;exitDy=0;entryX=0.5;entryY=0;entryDx=0;entryDy=0;" edge="1" parent="1" source="gNYUzNZE0exnkvLqRCgA-27" target="gNYUzNZE0exnkvLqRCgA-30">
          <mxGeometry width="50" height="50" relative="1" as="geometry">
            <mxPoint x="288" y="313" as="sourcePoint" />
            <mxPoint x="338" y="263" as="targetPoint" />
            <Array as="points">
              <mxPoint x="328" y="331" />
            </Array>
          </mxGeometry>
        </mxCell>
        <mxCell id="gNYUzNZE0exnkvLqRCgA-35" value="piškot" style="rounded=1;whiteSpace=wrap;html=1;" vertex="1" parent="1">
          <mxGeometry x="66" y="330" width="70" height="38" as="geometry" />
        </mxCell>
        <mxCell id="gNYUzNZE0exnkvLqRCgA-36" value="korpus" style="rounded=1;whiteSpace=wrap;html=1;" vertex="1" parent="1">
          <mxGeometry x="-94" y="330" width="67" height="38" as="geometry" />
        </mxCell>
        <mxCell id="gNYUzNZE0exnkvLqRCgA-40" style="edgeStyle=none;curved=1;rounded=0;orthogonalLoop=1;jettySize=auto;html=1;exitX=0;exitY=0.5;exitDx=0;exitDy=0;entryX=0.5;entryY=0;entryDx=0;entryDy=0;fontSize=12;startSize=8;endSize=8;" edge="1" parent="1" source="gNYUzNZE0exnkvLqRCgA-38" target="gNYUzNZE0exnkvLqRCgA-31">
          <mxGeometry relative="1" as="geometry">
            <Array as="points">
              <mxPoint x="74" y="410" />
            </Array>
          </mxGeometry>
        </mxCell>
        <mxCell id="gNYUzNZE0exnkvLqRCgA-42" style="edgeStyle=none;curved=1;rounded=0;orthogonalLoop=1;jettySize=auto;html=1;exitX=1;exitY=0.5;exitDx=0;exitDy=0;entryX=0.5;entryY=0;entryDx=0;entryDy=0;fontSize=12;startSize=8;endSize=8;" edge="1" parent="1" source="gNYUzNZE0exnkvLqRCgA-38" target="gNYUzNZE0exnkvLqRCgA-41">
          <mxGeometry relative="1" as="geometry">
            <Array as="points">
              <mxPoint x="248" y="410" />
            </Array>
          </mxGeometry>
        </mxCell>
        <mxCell id="gNYUzNZE0exnkvLqRCgA-38" value="náplň rozdrobena" style="rhombus;whiteSpace=wrap;html=1;" vertex="1" parent="1">
          <mxGeometry x="122" y="377" width="80" height="80" as="geometry" />
        </mxCell>
        <mxCell id="gNYUzNZE0exnkvLqRCgA-57" value="" style="edgeStyle=none;curved=1;rounded=0;orthogonalLoop=1;jettySize=auto;html=1;fontSize=12;startSize=8;endSize=8;exitX=1;exitY=0.5;exitDx=0;exitDy=0;" edge="1" parent="1" source="gNYUzNZE0exnkvLqRCgA-41" target="gNYUzNZE0exnkvLqRCgA-56">
          <mxGeometry relative="1" as="geometry">
            <Array as="points">
              <mxPoint x="315" y="505" />
              <mxPoint x="351" y="510" />
              <mxPoint x="361" y="521" />
            </Array>
          </mxGeometry>
        </mxCell>
        <mxCell id="gNYUzNZE0exnkvLqRCgA-41" value="má drobenku" style="rhombus;whiteSpace=wrap;html=1;" vertex="1" parent="1">
          <mxGeometry x="213" y="468" width="80" height="80" as="geometry" />
        </mxCell>
        <mxCell id="gNYUzNZE0exnkvLqRCgA-44" value="je to bublanina&lt;div&gt;(třená buchta)&lt;/div&gt;" style="rounded=1;whiteSpace=wrap;html=1;" vertex="1" parent="1">
          <mxGeometry x="125" y="553" width="95" height="35" as="geometry" />
        </mxCell>
        <mxCell id="gNYUzNZE0exnkvLqRCgA-45" value="" style="endArrow=classic;html=1;rounded=0;fontSize=12;startSize=8;endSize=8;curved=1;exitX=0;exitY=0.5;exitDx=0;exitDy=0;entryX=0.5;entryY=0;entryDx=0;entryDy=0;" edge="1" parent="1" source="gNYUzNZE0exnkvLqRCgA-41" target="gNYUzNZE0exnkvLqRCgA-44">
          <mxGeometry width="50" height="50" relative="1" as="geometry">
            <mxPoint x="205" y="407" as="sourcePoint" />
            <mxPoint x="255" y="357" as="targetPoint" />
            <Array as="points">
              <mxPoint x="168" y="506" />
            </Array>
          </mxGeometry>
        </mxCell>
        <mxCell id="gNYUzNZE0exnkvLqRCgA-53" style="edgeStyle=none;curved=1;rounded=0;orthogonalLoop=1;jettySize=auto;html=1;exitX=0;exitY=0.5;exitDx=0;exitDy=0;entryX=0.5;entryY=0;entryDx=0;entryDy=0;fontSize=12;startSize=8;endSize=8;" edge="1" parent="1" source="gNYUzNZE0exnkvLqRCgA-48" target="gNYUzNZE0exnkvLqRCgA-36">
          <mxGeometry relative="1" as="geometry">
            <Array as="points">
              <mxPoint x="-63" y="294" />
            </Array>
          </mxGeometry>
        </mxCell>
        <mxCell id="gNYUzNZE0exnkvLqRCgA-48" value="má drobenku" style="rhombus;whiteSpace=wrap;html=1;" vertex="1" parent="1">
          <mxGeometry x="-19" y="260" width="80" height="80" as="geometry" />
        </mxCell>
        <mxCell id="gNYUzNZE0exnkvLqRCgA-51" style="edgeStyle=none;curved=1;rounded=0;orthogonalLoop=1;jettySize=auto;html=1;exitX=1;exitY=0.5;exitDx=0;exitDy=0;entryX=0.611;entryY=0.074;entryDx=0;entryDy=0;entryPerimeter=0;fontSize=12;startSize=8;endSize=8;" edge="1" parent="1" source="gNYUzNZE0exnkvLqRCgA-48" target="gNYUzNZE0exnkvLqRCgA-35">
          <mxGeometry relative="1" as="geometry">
            <Array as="points">
              <mxPoint x="103" y="291" />
            </Array>
          </mxGeometry>
        </mxCell>
        <mxCell id="gNYUzNZE0exnkvLqRCgA-54" value="+" style="text;html=1;align=center;verticalAlign=middle;resizable=0;points=[];autosize=1;strokeColor=none;fillColor=none;fontSize=16;" vertex="1" parent="1">
          <mxGeometry x="333.5" y="26.5" width="27" height="31" as="geometry" />
        </mxCell>
        <mxCell id="gNYUzNZE0exnkvLqRCgA-55" value="-" style="text;html=1;align=center;verticalAlign=middle;resizable=0;points=[];autosize=1;strokeColor=none;fillColor=none;fontSize=16;" vertex="1" parent="1">
          <mxGeometry x="198.5" y="26.5" width="23" height="31" as="geometry" />
        </mxCell>
        <mxCell id="gNYUzNZE0exnkvLqRCgA-58" style="edgeStyle=none;curved=1;rounded=0;orthogonalLoop=1;jettySize=auto;html=1;fontSize=12;startSize=8;endSize=8;exitX=1;exitY=0.5;exitDx=0;exitDy=0;entryX=0.445;entryY=0;entryDx=0;entryDy=0;entryPerimeter=0;" edge="1" parent="1" source="gNYUzNZE0exnkvLqRCgA-56" target="gNYUzNZE0exnkvLqRCgA-60">
          <mxGeometry relative="1" as="geometry">
            <mxPoint x="451.0322580645161" y="621" as="targetPoint" />
            <Array as="points">
              <mxPoint x="448" y="574" />
            </Array>
          </mxGeometry>
        </mxCell>
        <mxCell id="gNYUzNZE0exnkvLqRCgA-61" style="edgeStyle=none;curved=1;rounded=0;orthogonalLoop=1;jettySize=auto;html=1;entryX=0.5;entryY=0;entryDx=0;entryDy=0;fontSize=12;startSize=8;endSize=8;exitX=0;exitY=0.5;exitDx=0;exitDy=0;" edge="1" parent="1" source="gNYUzNZE0exnkvLqRCgA-56" target="gNYUzNZE0exnkvLqRCgA-62">
          <mxGeometry relative="1" as="geometry">
            <Array as="points">
              <mxPoint x="272" y="570" />
            </Array>
          </mxGeometry>
        </mxCell>
        <mxCell id="gNYUzNZE0exnkvLqRCgA-56" value="koláčové těsto&amp;nbsp;" style="rhombus;whiteSpace=wrap;html=1;" vertex="1" parent="1">
          <mxGeometry x="322" y="541" width="80" height="80" as="geometry" />
        </mxCell>
        <mxCell id="gNYUzNZE0exnkvLqRCgA-60" value="řez" style="rounded=1;whiteSpace=wrap;html=1;" vertex="1" parent="1">
          <mxGeometry x="423" y="624" width="63" height="30" as="geometry" />
        </mxCell>
        <mxCell id="gNYUzNZE0exnkvLqRCgA-62" value="je to táč" style="rounded=1;whiteSpace=wrap;html=1;" vertex="1" parent="1">
          <mxGeometry x="239" y="624" width="78" height="30" as="geometry" />
        </mxCell>
        <mxCell id="gNYUzNZE0exnkvLqRCgA-65" value="" style="edgeStyle=none;curved=1;rounded=0;orthogonalLoop=1;jettySize=auto;html=1;fontSize=12;startSize=8;endSize=8;entryX=0.5;entryY=0;entryDx=0;entryDy=0;exitX=1;exitY=0.5;exitDx=0;exitDy=0;" edge="1" parent="1" source="gNYUzNZE0exnkvLqRCgA-63" target="gNYUzNZE0exnkvLqRCgA-19">
          <mxGeometry relative="1" as="geometry">
            <mxPoint x="760" y="292.5" as="targetPoint" />
            <Array as="points">
              <mxPoint x="683" y="290" />
            </Array>
          </mxGeometry>
        </mxCell>
        <mxCell id="gNYUzNZE0exnkvLqRCgA-63" value="Ve tvaru bábovky" style="rhombus;whiteSpace=wrap;html=1;" vertex="1" parent="1">
          <mxGeometry x="560" y="252.5" width="80" height="80" as="geometry" />
        </mxCell>
        <mxCell id="gNYUzNZE0exnkvLqRCgA-66" value="" style="endArrow=classic;html=1;rounded=0;fontSize=12;startSize=8;endSize=8;curved=1;exitX=0;exitY=0.5;exitDx=0;exitDy=0;" edge="1" parent="1" source="gNYUzNZE0exnkvLqRCgA-63" target="gNYUzNZE0exnkvLqRCgA-67">
          <mxGeometry width="50" height="50" relative="1" as="geometry">
            <mxPoint x="432" y="330" as="sourcePoint" />
            <mxPoint x="482" y="280" as="targetPoint" />
            <Array as="points">
              <mxPoint x="520" y="290" />
            </Array>
          </mxGeometry>
        </mxCell>
        <mxCell id="gNYUzNZE0exnkvLqRCgA-67" value="beránek" style="rounded=1;whiteSpace=wrap;html=1;" vertex="1" parent="1">
          <mxGeometry x="489" y="340" width="76" height="34" as="geometry" />
        </mxCell>
        <mxCell id="gNYUzNZE0exnkvLqRCgA-68" value="Cukroví&lt;div&gt;muffiny&lt;/div&gt;&lt;div&gt;kobliha - pečivo?&lt;/div&gt;" style="rounded=0;whiteSpace=wrap;html=1;" vertex="1" parent="1">
          <mxGeometry x="829" y="-75" width="120" height="60" as="geometry" />
        </mxCell>
      </root>
    </mxGraphModel>
  </diagram>
</mxfile>
